<svg width="602" height="525" viewBox="0 0 602 525" fill="none" xmlns="http://www.w3.org/2000/svg">
<path d="M258 175L409.554 262.5V437.5L258 525L106.446 437.5V262.5L258 175Z" fill="#31E8E8" fill-opacity="0.6"/>
<path d="M258 0L409.554 87.5V262.5L258 350L106.446 262.5V87.5L258 0Z" fill="#31E89F" fill-opacity="0.6"/>
<path d="M407 91L558.554 178.5V353.5L407 441L255.446 353.5V178.5L407 91Z" fill="#31C6E8" fill-opacity="0.6"/>
<path d="M186.24 294.8C185.1 294.8 184.26 294.56 183.72 294.08C183.24 293.54 183 292.7 183 291.56V280.85C183 279.71 183.24 278.9 183.72 278.42C184.26 277.88 185.1 277.61 186.24 277.61H195.15V247.37H186.24C185.1 247.37 184.26 247.13 183.72 246.65C183.24 246.11 183 245.27 183 244.13V233.24C183 232.1 183.24 231.29 183.72 230.81C184.26 230.27 185.1 230 186.24 230H224.58C225.72 230 226.53 230.27 227.01 230.81C227.55 231.29 227.82 232.1 227.82 233.24V244.13C227.82 245.27 227.55 246.11 227.01 246.65C226.53 247.13 225.72 247.37 224.58 247.37H215.85V277.61H224.58C225.72 277.61 226.53 277.88 227.01 278.42C227.55 278.9 227.82 279.71 227.82 280.85V291.56C227.82 292.7 227.55 293.54 227.01 294.08C226.53 294.56 225.72 294.8 224.58 294.8H186.24Z" fill="white"/>
<path d="M272.502 294.8H242.172C241.032 294.8 240.192 294.56 239.652 294.08C239.172 293.54 238.932 292.7 238.932 291.56V233.24C238.932 232.1 239.172 231.29 239.652 230.81C240.192 230.27 241.032 230 242.172 230H272.502C280.002 230 285.552 231.5 289.152 234.5C292.812 237.5 294.642 242.12 294.642 248.36V276.44C294.642 282.68 292.812 287.3 289.152 290.3C285.552 293.3 280.002 294.8 272.502 294.8ZM259.362 247.19V277.79H270.072C271.512 277.79 272.562 277.43 273.222 276.71C273.942 275.99 274.302 274.88 274.302 273.38V251.51C274.302 250.01 273.942 248.93 273.222 248.27C272.562 247.55 271.512 247.19 270.072 247.19H259.362Z" fill="white"/>
<path d="M351.081 294.8H309.321C308.181 294.8 307.341 294.56 306.801 294.08C306.321 293.54 306.081 292.7 306.081 291.56V233.24C306.081 232.1 306.321 231.29 306.801 230.81C307.341 230.27 308.181 230 309.321 230H351.081C352.221 230 353.031 230.27 353.511 230.81C354.051 231.29 354.321 232.1 354.321 233.24V243.77C354.321 244.91 354.051 245.75 353.511 246.29C353.031 246.77 352.221 247.01 351.081 247.01H326.241V253.94H343.791C344.931 253.94 345.741 254.21 346.221 254.75C346.761 255.23 347.031 256.04 347.031 257.18V266.81C347.031 267.95 346.761 268.79 346.221 269.33C345.741 269.81 344.931 270.05 343.791 270.05H326.241V277.79H351.081C352.221 277.79 353.031 278.06 353.511 278.6C354.051 279.08 354.321 279.89 354.321 281.03V291.56C354.321 292.7 354.051 293.54 353.511 294.08C353.031 294.56 352.221 294.8 351.081 294.8Z" fill="white"/>
<path d="M403.307 294.8H379.907C378.767 294.8 377.807 294.59 377.027 294.17C376.307 293.75 375.737 292.97 375.317 291.83L366.497 269.78C365.957 268.46 365.507 267.32 365.147 266.36C364.787 265.34 364.487 264.38 364.247 263.48C364.007 262.58 363.827 261.65 363.707 260.69C363.647 259.67 363.617 258.44 363.617 257V233.24C363.617 232.1 363.857 231.29 364.337 230.81C364.877 230.27 365.717 230 366.857 230H381.167C382.307 230 383.177 230.27 383.777 230.81C384.377 231.29 384.677 232.1 384.677 233.24V258.08C384.677 258.68 384.737 259.28 384.857 259.88C384.977 260.48 385.157 261.11 385.397 261.77L389.627 274.37C389.807 274.97 390.017 275.39 390.257 275.63C390.497 275.81 390.857 275.9 391.337 275.9H392.327C392.807 275.9 393.167 275.81 393.407 275.63C393.647 275.39 393.857 274.97 394.037 274.37L398.267 261.68C398.507 261.02 398.687 260.39 398.807 259.79C398.927 259.19 398.987 258.59 398.987 257.99V233.24C398.987 232.1 399.227 231.29 399.707 230.81C400.247 230.27 401.087 230 402.227 230H416.357C417.497 230 418.307 230.27 418.787 230.81C419.327 231.29 419.597 232.1 419.597 233.24V257C419.597 258.44 419.537 259.67 419.417 260.69C419.357 261.65 419.207 262.58 418.967 263.48C418.727 264.38 418.427 265.34 418.067 266.36C417.707 267.32 417.257 268.46 416.717 269.78L407.897 291.83C407.477 292.97 406.877 293.75 406.097 294.17C405.377 294.59 404.447 294.8 403.307 294.8Z" fill="white"/>
</svg>
